/* XPM */
static const char *Gardener[] = {
/* columns rows colors chars-per-pixel */
"64 64 88 1",
"  c #000000",
". c #080701",
"X c #0C0C02",
"o c #0B0B0B",
"O c #100F0A",
"+ c #131203",
"@ c #16150B",
"# c #1B1A0C",
"$ c #141415",
"% c #201F14",
"& c #242317",
"* c #282828",
"= c #044F00",
"- c #045400",
"; c #0C5603",
": c #0C5C01",
"> c #115F03",
", c #0E6202",
"< c #0C6A02",
"1 c #146304",
"2 c #1A6606",
"3 c #156903",
"4 c #1D6A07",
"5 c #1E6B08",
"6 c #206D07",
"7 c #206D08",
"8 c #227207",
"9 c #227009",
"0 c #28760A",
"q c #2A790C",
"w c #434108",
"e c #535109",
"r c #514E12",
"t c #66630C",
"y c #736F0D",
"u c #78750D",
"i c #767310",
"p c #6F6D6D",
"a c #706F6F",
"s c #817D0E",
"d c #85800F",
"f c #8A860F",
"g c #888410",
"h c #8D8810",
"j c #928E10",
"k c #979211",
"l c #989211",
"z c #9F9A12",
"x c #A39D13",
"c c #A6A213",
"v c #ACA713",
"b c #ADA814",
"n c #B2AC14",
"m c #B1AB1D",
"M c #B6B014",
"N c #BAB515",
"B c #BDB814",
"V c #C3BD16",
"C c #C7C016",
"Z c #CCC617",
"A c #CFC817",
"S c #D3CC17",
"D c #D3CC18",
"F c #DBD717",
"G c #D6D01A",
"H c #DBD418",
"J c #DED819",
"K c #E3DC19",
"L c #E2E117",
"P c #E6E119",
"I c #EAE41A",
"U c #EEE81A",
"Y c #F2EB1B",
"T c #F9F21C",
"R c #848181",
"E c #898787",
"W c #8E8B8B",
"Q c #918E8E",
"! c #959393",
"~ c #999696",
"^ c #9D9A9A",
"/ c #A19E9E",
"( c #A5A3A3",
") c #A8A6A6",
"_ c #ACAAAA",
"` c #B1AFAF",
"' c #B1B0B0",
"] c None",
/* pixels */
"]]]]]]]]]]]]]]]]]]]]]]]]]]]]                                  ]]",
"]]]]]]]]]]]]]]]]]]]]]]]]]]]                                    ]",
"]]]]]]]]]]]]]]]]]]]]]]]]]]                                      ",
"]]]]]]]]]]]]]]]]]]]]]]]]]]   ____E)(~____)____//)(QW))__^)___   ",
"]]]]]]]]]]]]]]]]]]]]]]]]]]   ____/)!)(________^^_/Q~___)^(___   ",
"]]]]]]]]]]]]]]]]]]]]]]]]]]   (_`~Q)(_^__))___(^__/_^/_)()__)_   ",
"]]]]]]]]]]]]]]]]]]]]]]]]]]   )__(())__(__)()^)__)^)()__/(((/_   ",
"]]]]]]]]]]]]]]]]]]]]]]]]]]   __)E~(___!!!^(_)___(!(____((____   ",
"]]]]]]]]]]]]]]]]]]]]]]]]]]   __)~!/_(QW)!~~)(__)))_))___(^___   ",
"]]]]]]]]]]]]]]]]]]]]]]]]]]   (`^!(_(^^____!)))()_~/`_(_(^_))^   ",
"]]                                 *p(_)^_`(^E^_)Q)__(_((///_   ",
"]                                    a__^__())__)QQ_(___)/((_   ",
"                                     *_______`((`_!((_^)_)/(_   ",
"   22222422222454222222222222222222   _//(____~_)(`~__/^~~Q/(   ",
"   2222:1422223<1422222222222242212   _)____()(__)())_`_)^/_)   ",
"   22222:422223122152422221:4235112   )(____)(^!/)!^^))(Q^(__   ",
"   464222222222222:44142472>1215222   )^___))E^)((W~`/^!~____   ",
"   21422441125>222244112711222>1244   _____/^(_)//~/)_)()()__   ",
"   214224::251>3:>2422442:27222247>   _(___!/___`//)_)____)__   ",
"   222224>22422:441122222291>27741>   (_)(_/)____)_(_/____/)_   ",
"   211522222:22243:12242224:3213212   )_(_(^^___)(())(()_^)__   ",
"   >=1422224>12221:2222112224521222   _^(____)_)/_((^//__/___   ",
"   ;1521:2221142441424:111227:>2222   _~/!__)!_)/`())((_/(/(_   ",
"   25227:122222:1442222222222>42222   _'_!^_^^_^^()`__)_EWQ)^   ",
"   2222411222222:122222222222222222   )/)(^()^^_()____^_^R)/~   ",
"   22222222222221222242112224222222   ((__(^(_(_______)~((_))   ",
"   222142221542452224422;2222222222               *a___^/_)_/   ",
"   2241,4221,92>72222>12>1241,22222                 p//()___/   ",
"   22>22742213211713211224122222:22                 *(W!^()__   ",
"   2:5444:222122143,222241:22224422    XZUUk.        _))))^__   ",
"   11022:1222225414122224:122112242    .bTUw o. .o   __^)___(   ",
"   11551125312251442212222222:12222    XIBKHo        __^)____   ",
"   22119243:426312662>,422221;42222    .bKPK#  o.    _())(___   ",
"   >54:24422223122:q22>222221122222    XALYno        ))_)_()_   ",
"   2,921422222222212422222222542222    +DKPV.        ___)_^W_   ",
"   2124422222254222222221>454212222   o&cIjw                    ",
"   22291222222:4222224722:54224:222     fTJBX oo               ]",
"   2242:41:2221242222:1622722271122    .cYJS@                 ]]",
"   222149:222442222222:722>12221222    XDUBD#        ]]]]]]]]]]]",
"   2>424422227:>221222>42>:7221:452    XNYYA. .      ]]]]]]]]]]]",
"   1=222222272:51;122222211522:4522    @iKYMX   o    ]]]]]]]]]]]",
"   1:27421524222,,22222222222244222    XZKUx.        ]]]]]]]]]]]",
"   4221721:722226222221472224<42222    XsGUr         ]]]]]]]]]]]",
"   2221:421322224222221192223,22222    XcBYGX o.     ]]]]]]]]]]]",
"   22221222222222222222222225222222   .XMTPJX        ]]]]]]]]]]]",
"                                       %mHTn..       ]]]]]]]]]]]",
"]                                      XSPVnX        ]]]]]]]]]]]",
"]]                                   o +xPKn@        ]]]]]]]]]]]",
"]]]]]]]]]]]]]]]   .ooo o.zYIGX       O. xVKP+        ]]]]]]]]]]]",
"]]]]]]]]]]]]]]]     o   +IUIe          #UJHb+   .    ]]]]]]]]]]]",
"]]]]]]]]]]]]]]]         .iKIV+   .O    ogKPD#   o    ]]]]]]]]]]]",
"]]]]]]]]]]]]]]]         otYYH+o        XgKVko        ]]]]]]]]]]]",
"]]]]]]]]]]]]]]]         #GIPGX oo   oooXxUGx+        ]]]]]]]]]]]",
"]]]]]]]]]]]]]]]      oo oJIPJ#   o  .$ XFYVVX .o     ]]]]]]]]]]]",
"]]]]]]]]]]]]]]]         +bKYcX   .     XAUKcX .o     ]]]]]]]]]]]",
"]]]]]]]]]]]]]]]         &DKPA.    o    #xUUA$  X     ]]]]]]]]]]]",
"]]]]]]]]]]]]]]]       .  nYPD@         #nHYc.        ]]]]]]]]]]]",
"]]]]]]]]]]]]]]]      .o XAKUiX        .XKUSu+        ]]]]]]]]]]]",
"]]]]]]]]]]]]]]]   .o    +DVDv+   o   o$.nYPlX   o    ]]]]]]]]]]]",
"]]]]]]]]]]]]]]]         .bTYm    o     XhKKB+        ]]]]]]]]]]]",
"]]]]]]]]]]]]]]]         +HUYx           wKYb         ]]]]]]]]]]]",
"]]]]]]]]]]]]]]]                                      ]]]]]]]]]]]",
"]]]]]]]]]]]]]]]]                                    ]]]]]]]]]]]]",
"]]]]]]]]]]]]]]]]]                                  ]]]]]]]]]]]]]"
};
